/* XPM */
static char *cpu[] = {
/* columns rows colors chars-per-pixel */
"16 16 38 1 ",
"  c #3A3A3A3A3A3A",
". c #3E3E3E3E3E3E",
"X c #484848484848",
"o c gray30",
"O c gray33",
"+ c #5C5B5C5B5C5B",
"@ c #626162616261",
"# c #6A6A6A6A6A6A",
"$ c gray42",
"% c #727272727272",
"& c gray47",
"* c #7A797A797A79",
"= c gray50",
"- c #818081808180",
"; c #848484848484",
": c #939393939393",
"> c #959595959595",
", c #9B9B9B9B9B9B",
"< c #9D9D9D9D9D9D",
"1 c gray63",
"2 c gray67",
"3 c #AEAEAEAEAEAE",
"4 c gray70",
"5 c #B7B7B7B7B7B7",
"6 c #BBBBBBBBBBBB",
"7 c gray",
"8 c #C3C3C3C3C3C3",
"9 c #C5C5C5C5C5C5",
"0 c gray79",
"q c gray81",
"w c gray82",
"e c gray85",
"r c #E1E1E1E1E1E1",
"t c #EAEAEAEAEAEA",
"y c #EFEFEFEFEFEF",
"u c gray94",
"i c #F9F9F9F9F9F9",
"p c white",
/* pixels */
"pppppppppppppppp",
"ppppr6w88w5rpppp",
"ppi2&o#++#o&3ipp",
"pp<O;=------O<pp",
"pt&<pppppppp<&tp",
"p< ,pppppppp, <p",
"pe#<pppppppp<#ep",
"p3X,pppppppp,X3p",
"p0+<pppppppp,+0p",
"p7O,pppppppp,O7p",
"p6o<pppppppp,O5p",
"pw@,pppppppp<@qp",
"pp:%66676667%>pp",
"ppy-@.OXXO.+;upp",
"ppppe<94491epppp",
"pppppppppppppppp"
};
