#define cpu_width 16
#define cpu_height 16
static char cpu_bits[] = {
  0x00, 0x00, 0x58, 0x1A, 0xF8, 0x1F, 0xFE, 0x7F, 0x0E, 0x70, 0x0C, 0x30, 
  0x0E, 0x70, 0x0C, 0x30, 0x0C, 0x30, 0x0E, 0x70, 0x0C, 0x30, 0x0C, 0x30, 
  0xFE, 0x7F, 0xF8, 0x1F, 0x58, 0x1A, 0x00, 0x00, };
