#define memory_width 16
#define memory_height 16
static char memory_bits[] = {
  0x00, 0x00, 0x00, 0x00, 0xE0, 0x07, 0xF0, 0x0F, 0x38, 0x1C, 0x30, 0x0C, 
  0x38, 0x1C, 0x30, 0x0C, 0x30, 0x0C, 0x38, 0x1C, 0x30, 0x0C, 0x38, 0x1C, 
  0xF0, 0x0F, 0xE0, 0x07, 0x00, 0x00, 0x00, 0x00, };
